# Blender v2.91.0 OBJ File: 'SpiderBody.blend'
# www.blender.org
mtllib SpiderBody.mtl
o Cube
v -1.490371 1.490371 0.694860
v -1.490371 -1.490371 0.694860
v 1.490371 1.490371 0.694860
v 1.490371 -1.490371 0.694860
v -1.490370 1.490371 3.675601
v -1.490370 -1.490371 3.675601
v 1.490371 1.490371 3.675601
v 1.490371 -1.490371 3.675601
v -1.490371 1.490371 -3.690378
v -1.490371 -1.490371 -3.690378
v 1.490370 1.490371 -3.690378
v 1.490370 -1.490371 -3.690378
vt 0.875000 0.500000
vt 0.625000 0.750000
vt 0.625000 0.500000
vt 0.375000 1.000000
vt 0.375000 0.750000
vt 0.625000 0.000000
vt 0.375000 0.250000
vt 0.375000 0.000000
vt 0.375000 0.500000
vt 0.125000 0.750000
vt 0.125000 0.500000
vt 0.625000 0.750000
vt 0.625000 0.250000
vt 0.625000 0.500000
vt 0.375000 0.750000
vt 0.375000 0.500000
vt 0.875000 0.750000
vt 0.625000 1.000000
vn 0.0000 1.0000 0.0000
vn 1.0000 0.0000 -0.0000
vn 0.0000 0.0000 1.0000
vn 0.0000 -1.0000 0.0000
vn -1.0000 0.0000 0.0000
vn 0.0000 0.0000 -1.0000
usemtl Material
s off
f 5/1/1 3/2/1 1/3/1
f 3/2/2 8/4/2 4/5/2
f 7/6/3 6/7/3 8/8/3
f 2/9/4 8/10/4 6/11/4
f 4/5/2 11/12/2 3/2/2
f 5/13/5 2/9/5 6/7/5
f 9/14/6 12/15/6 10/16/6
f 1/3/5 10/16/5 2/9/5
f 2/9/4 12/15/4 4/5/4
f 3/2/1 9/14/1 1/3/1
f 5/1/1 7/17/1 3/2/1
f 3/2/2 7/18/2 8/4/2
f 7/6/3 5/13/3 6/7/3
f 2/9/4 4/5/4 8/10/4
f 4/5/2 12/15/2 11/12/2
f 5/13/5 1/3/5 2/9/5
f 9/14/6 11/12/6 12/15/6
f 1/3/5 9/14/5 10/16/5
f 2/9/4 10/16/4 12/15/4
f 3/2/1 11/12/1 9/14/1
